# Apple ModelIO OBJ File: cube
mtllib cube.mtl
g 
v 135.294 103.984 -18.3376
v -135.294 103.984 -18.3376
v -135.294 103.984 18.3621
v 135.294 103.984 18.3621
v -135.294 -149.202 18.362
v 135.294 -149.202 18.362
v -135.294 -149.202 -18.3376
v 135.294 -149.202 -18.3376
v -106.661 -122.41 18.362
v 106.661 -122.41 18.362
v 106.661 -122.41 -43.1195
v -106.661 -122.41 -43.1195
v -106.661 77.1925 18.362
v 106.661 77.1925 18.362
v 106.661 77.1926 -43.1194
v -106.661 77.1926 -43.1194
v -106.661 77.1926 -42.3832
v 106.661 77.1926 -42.3832
v 106.661 -122.41 -42.3833
v -106.661 -122.41 -42.3833
vn 0 1 0
vn 0 0 1
vn -1 0 0
vn 0 -1 0
vn 1 -0 0
vt 0.625 0.5
vt 0.875 0.5
vt 0.875 0.75
vt 0.625 0.75
vt 0.125 0.75
vt 0.375 0.75
vt 0.375 0
vt 0.625 0
vt 0.625 0.25
vt 0.375 0.25
vt 0.125 0.5
vt 0.375 0.5
vt 0.401454 0.973546
vt 0.401454 0.776454
vt 0.598546 0.973546
vt 0.625 1
vt 0.375 1
vt 0.598546 0.776454
usemtl material_1
f 1/1/1 2/2/1 3/3/1 4/4/1 
f 5/5/2 6/6/2 6/6/2 5/5/2 
f 5/7/3 3/8/3 2/9/3 7/10/3 
f 7/11/4 8/12/4 6/6/4 5/5/4 
f 8/12/5 1/1/5 4/4/5 6/6/5 
f 9/13/1 10/14/1 11/14/1 12/13/1 
f 4/4/2 3/3/2 3/3/2 4/4/2 
f 6/6/2 4/6/2 4/6/2 6/6/2 
f 3/8/2 5/8/2 5/8/2 3/8/2 
f 9/13/2 13/15/2 3/16/2 5/17/2 
f 14/18/2 10/14/2 6/6/2 4/4/2 
f 13/15/2 14/18/2 4/4/2 3/16/2 
f 10/14/2 9/13/2 5/17/2 6/6/2 
f 15/18/1 16/15/1 17/15/1 18/18/1 
f 10/14/3 14/18/3 15/18/3 11/14/3 
f 14/18/4 13/15/4 16/15/4 15/18/4 
f 13/15/5 9/13/5 12/13/5 16/15/5 
f 19/14/2 18/18/2 18/18/2 19/14/2 
f 16/15/3 12/13/3 20/13/3 17/15/3 
f 12/13/4 11/14/4 19/14/4 20/13/4 
f 11/14/5 15/18/5 18/18/5 19/14/5 
f 20/13/2 17/15/2 17/15/2 20/13/2 
f 18/18/2 19/14/2 19/14/2 18/18/2 
f 17/15/2 18/18/2 18/18/2 17/15/2 
f 19/14/2 20/13/2 20/13/2 19/14/2 
f 18/18/2 17/15/2 17/15/2 18/18/2 
f 18/18/2 17/15/2 17/15/2 18/18/2 
f 17/15/2 20/13/2 20/13/2 17/15/2 
f 20/13/2 19/14/2 19/14/2 20/13/2 
f 18/18/2 17/15/2 17/15/2 18/18/2 
f 17/15/2 20/15/2 20/15/2 17/15/2 
f 20/13/2 19/14/2 19/14/2 20/13/2 
f 19/14/2 18/14/2 18/14/2 19/14/2 
f 20/13/2 17/15/2 17/15/2 20/13/2 
f 18/18/2 19/14/2 19/14/2 18/18/2 
f 17/15/2 18/18/2 18/18/2 17/15/2 
f 19/14/2 20/13/2 20/13/2 19/14/2 
f 17/15/2 20/15/2 20/15/2 17/15/2 
f 20/13/2 19/14/2 19/14/2 20/13/2 
f 19/14/2 18/14/2 18/14/2 19/14/2 
f 20/13/2 17/15/2 17/15/2 20/13/2 
f 18/18/2 19/14/2 19/14/2 18/18/2 
f 17/15/2 18/18/2 18/18/2 17/15/2 
f 19/14/2 20/13/2 20/13/2 19/14/2 
s off
