# Apple ModelIO OBJ File: frame
mtllib frame.mtl
g 
v -0.856186 -1 0.458813
v -0.856186 1 0.458813
v -0.856186 1 -0.458813
v -0.856186 -1 -0.458813
v 0.72174 0.842971 0.458813
v -0.72174 0.842971 0.458813
v -0.72174 0.842971 -0.541187
v 0.72174 0.842971 -0.541187
v 0.856186 -1 -0.458813
v 0.856186 1 -0.458813
v 0.856186 1 0.458813
v 0.856186 -1 0.458813
v 0.72174 -0.842971 0.458813
v -0.72174 -0.842971 0.458813
v 0.72174 -0.842971 -0.541187
v -0.72174 -0.842971 -0.541187
vn -1 -0 0
vn 0 -1 -0
vn 1 0 0
vn 0 -0 1
vn 0 1 0
vt 0.375 0
vt 0.625 0
vt 0.625 0.25
vt 0.375 0.25
vt 0.625 0.75
vt 0.875 0.75
vt 0.375 0.5
vt 0.625 0.5
vt 0.375 0.75
vt 0.125 0.5
vt 0.125 0.75
vt 0.875 0.5
usemtl material_1
f 1/1/1 2/2/1 3/3/1 4/4/1 
f 5/5/2 6/6/2 7/6/2 8/5/2 
f 9/7/3 10/8/3 11/5/3 12/9/3 
f 11/5/4 2/6/4 6/6/4 5/5/4 
f 4/10/2 9/7/2 12/9/2 1/11/2 
f 10/8/5 3/12/5 2/6/5 11/5/5 
f 12/9/4 11/5/4 5/5/4 13/9/4 
f 2/2/4 1/1/4 14/1/4 6/2/4 
f 1/11/4 12/9/4 13/9/4 14/11/4 
f 13/9/1 5/5/1 8/5/1 15/9/1 
f 14/11/5 13/9/5 15/9/5 16/11/5 
f 6/2/3 14/1/3 16/1/3 7/2/3 
s off
